<svg id="Layer_1" data-name="Layer 1" xmlns="http://www.w3.org/2000/svg" viewBox="0 0 374.88 96.6"><path d="M55.6,87.1q-3.7,0-5-1.8a7.9,7.9,0,0,1-1.25-4.6,20.45,20.45,0,0,1,.3-3.45c.2-1.17.4-2.38.6-3.65a63.76,63.76,0,0,1,2.75-9.75q2-5.44,4.45-11.75H29.2q-1.2,2.7-2.85,6.95t-3.25,9q-1.61,4.8-2.7,9.05a29.15,29.15,0,0,0-1.1,6.95,4.58,4.58,0,0,0,.4,2.2H6.8q1.2-5,3.25-11.15t4.7-12.85Q17.41,55.6,20.2,49t5.4-12.65q2.59-6,6-12.25c.47-.8.88-1.53,1.25-2.2a7.48,7.48,0,0,1,1.25-1.7,51.75,51.75,0,0,0-8.35.95,53.38,53.38,0,0,0-8.5,2.35,30.44,30.44,0,0,0-6.9,3.5A9,9,0,0,0,6.7,31.4a.39.39,0,0,1-.4.3c-.6,0-.9-.47-.9-1.4a3.3,3.3,0,0,1,.2-.9,19.69,19.69,0,0,1,2.25-4.6,23.18,23.18,0,0,1,2.75-3.4A13.63,13.63,0,0,1,18,17.25a48.27,48.27,0,0,1,8.7-.75H49.3a24,24,0,0,0-4.7,5.3,92.4,92.4,0,0,0-5,8.15Q37.1,34.49,35,39.05T31.2,47.2H59.5q2.2-5.21,4.4-10t3.95-8.45c1.17-2.47,2.08-4.3,2.75-5.5a28.92,28.92,0,0,1,2.15-3.7,6.85,6.85,0,0,1,2.75-2.3,11.59,11.59,0,0,1,4.8-.8h6.4a20.81,20.81,0,0,0-4,4.75c-1.5,2.23-3,4.72-4.5,7.45s-2.82,5.33-4,7.8q-2.51,5.3-5.25,12t-4.9,13.35A86.91,86.91,0,0,0,61,73.8a15.26,15.26,0,0,0-.3,3,10.13,10.13,0,0,0,.8,4,2.9,2.9,0,0,0,2.9,1.85,8.28,8.28,0,0,0,3.9-1.3h.1c.13,0,.23.12.3.35a.52.52,0,0,1-.1.55,11.54,11.54,0,0,1-3.4,2.4,23.72,23.72,0,0,1-4.75,1.75A19.83,19.83,0,0,1,55.6,87.1Z" transform="translate(-4.4 -15.5)"/><path d="M55.6,88.1c-2.8,0-4.74-.75-5.77-2.23A8.86,8.86,0,0,1,48.4,80.7a22.5,22.5,0,0,1,.31-3.62c.2-1.16.4-2.37.6-3.64a66.67,66.67,0,0,1,2.8-9.93c1.16-3.24,2.48-6.74,3.92-10.41H29.85c-.73,1.69-1.6,3.81-2.57,6.31-1.1,2.83-2.18,5.86-3.23,9s-2,6.18-2.68,9a28.15,28.15,0,0,0-1.07,6.7,3.54,3.54,0,0,0,.27,1.7l.86,1.5H5.53l.3-1.23c.8-3.36,1.9-7.14,3.27-11.24s3-8.42,4.72-12.9S17.41,53,19.28,48.61,23,40,24.68,36s3.77-8.2,6-12.34c.48-.82.89-1.54,1.25-2.2l.07-.11a54,54,0,0,0-6.1.82,52.43,52.43,0,0,0-8.34,2.31,29.33,29.33,0,0,0-6.68,3.38,8.13,8.13,0,0,0-3.27,3.9,1.39,1.39,0,0,1-1.35,1c-.45,0-1.9-.17-1.9-2.4a4,4,0,0,1,.25-1.22A21.17,21.17,0,0,1,7,24.24a24.58,24.58,0,0,1,2.87-3.55,14.62,14.62,0,0,1,7.93-4.42,49.42,49.42,0,0,1,8.88-.77H52.23l-2.32,1.79a23.38,23.38,0,0,0-4.49,5.08,90.38,90.38,0,0,0-4.94,8.06c-1.65,3-3.21,6-4.63,9-1.15,2.44-2.2,4.7-3.11,6.72h26.1C60.22,43,61.61,39.8,63,36.83q2.2-4.76,4-8.46c1.17-2.47,2.1-4.34,2.78-5.56A30.62,30.62,0,0,1,71.93,19a7.88,7.88,0,0,1,3.14-2.63,12.26,12.26,0,0,1,5.23-.9h9.31l-2.3,1.79a19.72,19.72,0,0,0-3.83,4.52C82,24,80.5,26.49,79,29.18s-2.81,5.31-3.92,7.74c-1.66,3.51-3.42,7.53-5.23,12S66.42,57.76,65,62.16A85.52,85.52,0,0,0,62,74a13.8,13.8,0,0,0-.29,2.83,9.08,9.08,0,0,0,.72,3.65,1.91,1.91,0,0,0,2,1.25,7.43,7.43,0,0,0,3.41-1.17L68,80.4h.36a1.32,1.32,0,0,1,1.26,1.07A1.52,1.52,0,0,1,69.31,83a12.64,12.64,0,0,1-3.66,2.58,24.89,24.89,0,0,1-5,1.83A20.89,20.89,0,0,1,55.6,88.1Zm-27-37H59l-.54,1.37c-1.65,4.15-3.14,8.1-4.44,11.72a63.2,63.2,0,0,0-2.71,9.59c-.19,1.25-.39,2.47-.59,3.64a19.49,19.49,0,0,0-.29,3.28,7,7,0,0,0,1.07,4c.63.91,2,1.37,4.13,1.37a18.77,18.77,0,0,0,4.6-.62,22.72,22.72,0,0,0,4.55-1.67l.28-.15a4,4,0,0,1-4.45-2.41,11.22,11.22,0,0,1-.88-4.45A16.54,16.54,0,0,1,60,73.6,87.82,87.82,0,0,1,63.1,61.54c1.44-4.44,3.09-9,4.93-13.42s3.6-8.51,5.27-12c1.13-2.46,2.47-5.1,4-7.85s3-5.28,4.55-7.53a31.35,31.35,0,0,1,2.41-3.19H80.3a10.79,10.79,0,0,0-4.37.7,5.84,5.84,0,0,0-2.36,2,29,29,0,0,0-2.08,3.58q-1,1.82-2.74,5.48t-3.94,8.44c-1.46,3.14-2.93,6.48-4.39,9.92l-.26.61H29.66l.63-1.41c1.05-2.38,2.32-5.13,3.76-8.17s3-6.12,4.67-9.15a94.44,94.44,0,0,1,5.06-8.24,31.15,31.15,0,0,1,3-3.73h-20a48.2,48.2,0,0,0-8.52.73,12.69,12.69,0,0,0-6.86,3.87,21.21,21.21,0,0,0-2.64,3.26,17.83,17.83,0,0,0-1.89,3.7,12,12,0,0,1,3-2.88,31.57,31.57,0,0,1,7.12-3.62,54.62,54.62,0,0,1,8.66-2.39,52.62,52.62,0,0,1,8.51-1l2.51-.06-1.77,1.77a6.51,6.51,0,0,0-1.08,1.47c-.37.68-.8,1.42-1.27,2.22-2.23,4.07-4.23,8.16-5.94,12.14S23,45,21.12,49.39s-3.69,8.86-5.44,13.28S12.35,71.41,11,75.47C9.81,79,8.83,82.32,8.08,85.3H18.37a8.82,8.82,0,0,1-.07-1.2,30.09,30.09,0,0,1,1.13-7.2c.74-2.85,1.65-5.92,2.72-9.12s2.16-6.23,3.27-9.09,2.06-5.19,2.87-7ZM67.87,81.62l0,0Z" transform="translate(-4.4 -15.5)"/><path d="M85.8,87.1a11.75,11.75,0,0,1-8-2.9q-3.34-2.9-3.35-9.3a30.78,30.78,0,0,1,1.7-9.8,35.39,35.39,0,0,1,4.85-9.5,26.75,26.75,0,0,1,7.65-7.2,18.68,18.68,0,0,1,10.1-2.8A12.49,12.49,0,0,1,106,47.35,9.68,9.68,0,0,1,109.6,52a17.39,17.39,0,0,1,1.1,6.2,23.66,23.66,0,0,1-.55,5,31.52,31.52,0,0,1-1.55,5,5.41,5.41,0,0,0,4.3,2,7.75,7.75,0,0,0,5.2-2.1,13.27,13.27,0,0,0,2.55-3c.77-1.23,1.45-2.38,2-3.45.2-.4.43-.6.7-.6s.5.47.5,1.4a11,11,0,0,1-.25,2.1A7,7,0,0,1,122.6,67a15,15,0,0,1-3.1,4,13.08,13.08,0,0,1-3.6,2.15,8.55,8.55,0,0,1-3.2.6,9,9,0,0,1-5.6-1.9,28.36,28.36,0,0,1-2,3.5,28.34,28.34,0,0,1-7.5,8.35Q93,87.1,85.8,87.1Zm3.8-3.8a7.54,7.54,0,0,0,4.45-1.55,19.64,19.64,0,0,0,4-3.85,33.6,33.6,0,0,0,3.15-4.8c.9-1.67,1.65-3.13,2.25-4.4a9.18,9.18,0,0,1-3.4-7.3,6.08,6.08,0,0,1,1.6-4.5,5.37,5.37,0,0,1,4.4-1.4,6.84,6.84,0,0,0-1.2-3.8,4.17,4.17,0,0,0-3.6-1.5,7.62,7.62,0,0,0-4.35,1.4,18,18,0,0,0-3.8,3.55,37,37,0,0,0-3.1,4.4Q88.6,61.8,87.7,63.6a38.3,38.3,0,0,0-2.4,6.3,24.1,24.1,0,0,0-1.1,6.9,8.62,8.62,0,0,0,1.15,4.65C86.12,82.68,87.53,83.3,89.6,83.3Z" transform="translate(-4.4 -15.5)"/><path d="M85.8,88.1A12.82,12.82,0,0,1,77.19,85c-2.45-2.13-3.69-5.51-3.69-10.06a32.17,32.17,0,0,1,1.75-10.12,36.77,36.77,0,0,1,5-9.76,27.64,27.64,0,0,1,7.93-7.47A19.81,19.81,0,0,1,98.8,44.6a13.65,13.65,0,0,1,7.72,1.92,10.72,10.72,0,0,1,4,5.12,18.34,18.34,0,0,1,1.17,6.56,25.12,25.12,0,0,1-.57,5.26,34.7,34.7,0,0,1-1.37,4.62,4.36,4.36,0,0,0,3.14,1.22,6.75,6.75,0,0,0,4.54-1.85,12.23,12.23,0,0,0,2.36-2.83c.76-1.23,1.45-2.37,2-3.41a1.75,1.75,0,0,1,1.57-1.11c.68,0,1.5.42,1.5,2.4a11.55,11.55,0,0,1-.27,2.3,7.8,7.8,0,0,1-1.2,2.75,15.48,15.48,0,0,1-3.28,4.16A14.23,14.23,0,0,1,116.27,74a9.64,9.64,0,0,1-3.57.67,10,10,0,0,1-5.22-1.43,29.86,29.86,0,0,1-1.55,2.58,29.46,29.46,0,0,1-7.73,8.6C95,86.87,90.8,88.1,85.8,88.1Zm13-41.5a17.78,17.78,0,0,0-9.57,2.65,25.86,25.86,0,0,0-7.37,6.93,34.61,34.61,0,0,0-4.71,9.24A29.81,29.81,0,0,0,75.5,74.9c0,3.94,1,6.82,3,8.54a10.69,10.69,0,0,0,7.3,2.66c4.56,0,8.32-1.09,11.2-3.25a27.58,27.58,0,0,0,7.24-8.06,26.15,26.15,0,0,0,2-3.42l.53-1.11,1,.74a7.92,7.92,0,0,0,5,1.7,7.61,7.61,0,0,0,2.83-.53,12.33,12.33,0,0,0,3.32-2,13.87,13.87,0,0,0,2.88-3.69,5.91,5.91,0,0,0,.94-2.1c.07-.33.12-.63.16-.92-.42.71-.86,1.44-1.33,2.2A14.32,14.32,0,0,1,118.75,69a8.74,8.74,0,0,1-5.85,2.34A6.37,6.37,0,0,1,107.84,69l-.39-.46.22-.56a30.85,30.85,0,0,0,1.5-4.89,23.13,23.13,0,0,0,.53-4.84,16.41,16.41,0,0,0-1-5.85,8.62,8.62,0,0,0-3.28-4.18A11.67,11.67,0,0,0,98.8,46.6ZM123.68,62ZM89.6,84.3c-2.43,0-4.14-.78-5.1-2.32a9.71,9.71,0,0,1-1.3-5.18,25.35,25.35,0,0,1,1.14-7.19,40.61,40.61,0,0,1,2.47-6.46c.6-1.21,1.37-2.6,2.28-4.11a38.2,38.2,0,0,1,3.18-4.52,19.1,19.1,0,0,1,4-3.75,8.59,8.59,0,0,1,4.91-1.57,5.13,5.13,0,0,1,4.41,1.91A7.89,7.89,0,0,1,107,55.46l0,1.12-1.12-.08a4.39,4.39,0,0,0-3.62,1.11A5.09,5.09,0,0,0,101,61.4a8.17,8.17,0,0,0,3,6.54l.58.5-.33.69c-.61,1.29-1.37,2.78-2.27,4.45a35.57,35.57,0,0,1-3.24,4.94,20.58,20.58,0,0,1-4.16,4A8.54,8.54,0,0,1,89.6,84.3Zm11.6-33.1a6.53,6.53,0,0,0-3.79,1.23,16.76,16.76,0,0,0-3.58,3.35,35.88,35.88,0,0,0-3,4.28c-.89,1.48-1.63,2.82-2.22,4a38.82,38.82,0,0,0-2.33,6.13A23.51,23.51,0,0,0,85.2,76.8a7.73,7.73,0,0,0,1,4.12c.57.93,1.69,1.38,3.4,1.38a6.51,6.51,0,0,0,3.86-1.36,18.5,18.5,0,0,0,3.75-3.66,32.51,32.51,0,0,0,3.06-4.66c.73-1.35,1.37-2.58,1.9-3.68A10.14,10.14,0,0,1,99,61.4a7.1,7.1,0,0,1,1.89-5.21,6,6,0,0,1,4-1.7,5.32,5.32,0,0,0-.9-2.2A3.22,3.22,0,0,0,101.2,51.2Z" transform="translate(-4.4 -15.5)"/><path d="M148.9,86.9q-3.41,0-4.65-2.05A8.89,8.89,0,0,1,143,80.1a30.18,30.18,0,0,1,1.3-7.95q1.29-4.65,3-9.4c1.16-3.17,2.21-6,3.15-8.45a4.72,4.72,0,0,0,.4-1.9,1.85,1.85,0,0,0-.7-1.6,3.06,3.06,0,0,0-1.8-.5,8.13,8.13,0,0,0-3.6,1,18.72,18.72,0,0,0-5.9,5.1,33.48,33.48,0,0,0-4.5,7.3Q132.5,68,131,72.3t-2.4,7c-.4,1.13-.77,2.3-1.1,3.5s-.67,2.37-1,3.5h-9.7a67.76,67.76,0,0,1,2.3-7.5q1.7-4.39,3.45-8.8t3-7.8c.26-.67.68-1.92,1.25-3.75s1.1-3.75,1.6-5.75a21.11,21.11,0,0,0,.75-4.9,2.67,2.67,0,0,0-.3-1.5c.6,0,1.28,0,2,0s1.48,0,2.15,0c.93,0,1.81,0,2.65.1a2.75,2.75,0,0,1,1.65.5,3.06,3.06,0,0,1,1.2,2.6,6.79,6.79,0,0,1-.45,2.4,18.63,18.63,0,0,0-.65,2c.93-.87,1.9-1.7,2.9-2.5a48.11,48.11,0,0,1,4.6-3.1,16.87,16.87,0,0,1,4.5-1.8,19.52,19.52,0,0,1,4.9-.7q5.7,0,5.7,5.3a14.88,14.88,0,0,1-.15,2,11.11,11.11,0,0,1-.65,2.4c-.34,1.07-.87,2.53-1.6,4.4s-1.49,3.85-2.25,6-1.42,4.08-1.95,6a17.08,17.08,0,0,0-.8,4.5q0,2.4,1.8,2.4c1.06,0,2.4-.67,4-2a26.18,26.18,0,0,0,4-4.1A46.74,46.74,0,0,0,166.35,67c1.16-2,2.18-3.78,3.05-5.45.33-.53.56-.8.7-.8.4,0,.6.57.6,1.7a8.53,8.53,0,0,1-.25,1.85,7.89,7.89,0,0,1-.75,2q-1.41,2.4-3.3,5.3t-3.9,5.6a38.37,38.37,0,0,1-3.7,4.2,29.16,29.16,0,0,1-4.9,4A9.38,9.38,0,0,1,148.9,86.9Z" transform="translate(-4.4 -15.5)"/><path d="M148.9,87.9c-2.63,0-4.48-.85-5.51-2.53A10,10,0,0,1,142,80.1a31.32,31.32,0,0,1,1.34-8.22c.86-3.1,1.89-6.29,3.07-9.48s2.22-6,3.15-8.45a3.62,3.62,0,0,0,.34-1.55c0-.58-.21-.73-.29-.79a2.08,2.08,0,0,0-1.21-.31,7.29,7.29,0,0,0-3.15.89A17.89,17.89,0,0,0,139.68,57a32.81,32.81,0,0,0-4.37,7.09c-1.24,2.82-2.38,5.68-3.37,8.52s-1.79,5.19-2.39,7c-.4,1.13-.77,2.29-1.09,3.45s-.67,2.37-1,3.51l-.21.72H115.5l.33-1.25a67.69,67.69,0,0,1,2.34-7.62q1.69-4.4,3.45-8.8c1.16-2.93,2.18-5.52,3-7.79.27-.65.68-1.89,1.23-3.69s1.1-3.73,1.59-5.69a20.17,20.17,0,0,0,.72-4.66,2.38,2.38,0,0,0-.11-.92l-1.2-1.59h2c.59,0,1.25,0,2,0a41.73,41.73,0,0,1,4.93,0,3.67,3.67,0,0,1,2.22.74,4.07,4.07,0,0,1,1.55,3.36,7,7,0,0,1-.13,1.36l.3-.24a48.69,48.69,0,0,1,4.71-3.17,17.62,17.62,0,0,1,4.77-1.92,21.1,21.1,0,0,1,5.15-.73c4.32,0,6.7,2.24,6.7,6.3a17,17,0,0,1-.16,2.14,12,12,0,0,1-.71,2.62c-.32,1.05-.87,2.55-1.6,4.41s-1.49,3.85-2.24,5.92-1.41,4-1.93,5.88a16.26,16.26,0,0,0-.76,4.23c0,1.4.46,1.4.8,1.4.56,0,1.61-.31,3.36-1.77a25.07,25.07,0,0,0,3.85-3.94,47.56,47.56,0,0,0,3.78-5.45c1.15-2,2.17-3.77,3-5.4.46-.74.89-1.34,1.59-1.34,1.06,0,1.6.91,1.6,2.7a8.92,8.92,0,0,1-.28,2.08,8.66,8.66,0,0,1-.85,2.21q-1.44,2.46-3.34,5.36c-1.26,1.93-2.59,3.83-3.93,5.64A39.06,39.06,0,0,1,159.51,82a29.9,29.9,0,0,1-5.08,4.08A10.37,10.37,0,0,1,148.9,87.9Zm-.5-38.6a4,4,0,0,1,2.38.69,2.78,2.78,0,0,1,1.12,2.41,5.74,5.74,0,0,1-.49,2.31c-.91,2.41-2,5.22-3.12,8.39s-2.18,6.27-3,9.32A29.39,29.39,0,0,0,144,80.1a8,8,0,0,0,1.1,4.23c.65,1.06,1.89,1.57,3.8,1.57a8.42,8.42,0,0,0,4.46-1.49,27.32,27.32,0,0,0,4.73-3.82,37.08,37.08,0,0,0,3.6-4.08c1.32-1.79,2.63-3.66,3.87-5.56s2.35-3.66,3.27-5.25a6.9,6.9,0,0,0,.65-1.68c.07-.3.12-.58.16-.84-.71,1.32-1.53,2.76-2.43,4.28a48.76,48.76,0,0,1-3.93,5.67,26.74,26.74,0,0,1-4.15,4.24c-1.79,1.5-3.31,2.23-4.63,2.23-.84,0-2.8-.33-2.8-3.4a17.91,17.91,0,0,1,.84-4.78c.53-1.88,1.2-3.9,2-6s1.52-4.1,2.26-6,1.24-3.27,1.57-4.33a10.16,10.16,0,0,0,.62-2.23A14.75,14.75,0,0,0,159.1,51c0-3-1.45-4.3-4.7-4.3a18.54,18.54,0,0,0-4.65.67,16,16,0,0,0-4.23,1.68,48.72,48.72,0,0,0-4.5,3c-1,.77-1.92,1.6-2.84,2.45l-2.47,2.29.82-3.26a19,19,0,0,1,.68-2.11,5.77,5.77,0,0,0,.39-2.05,2.08,2.08,0,0,0-.8-1.8l-.11-.09h0a2.41,2.41,0,0,0-1-.21,37.61,37.61,0,0,0-4.68,0l-.81,0c0,.16,0,.34,0,.52a22.12,22.12,0,0,1-.78,5.14c-.5,2-1,4-1.62,5.81s-1,3.12-1.27,3.82c-.87,2.26-1.88,4.86-3,7.8s-2.32,5.86-3.45,8.79a59.18,59.18,0,0,0-1.93,6.14h7.65c.26-.9.52-1.83.79-2.77.33-1.2.71-2.4,1.12-3.56.59-1.79,1.39-4.13,2.39-7s2.17-5.8,3.43-8.67a35.05,35.05,0,0,1,4.64-7.52,19.74,19.74,0,0,1,6.22-5.37A9.22,9.22,0,0,1,148.4,49.3Z" transform="translate(-4.4 -15.5)"/><path d="M192.2,84.9a20.69,20.69,0,0,1-9.7,2.4,15.91,15.91,0,0,1-8-2.1,10.6,10.6,0,0,1-5-6.7,16,16,0,0,1-.6-4.4,24.78,24.78,0,0,1,1.35-7.85,32.58,32.58,0,0,1,3.55-7.45,29.93,29.93,0,0,1,8.6-8.8,20.16,20.16,0,0,1,11.5-3.5q4.69,0,7.3,2.4a7.42,7.42,0,0,1,2.6,5.6,9.67,9.67,0,0,1-2.55,6.65,16.21,16.21,0,0,1-6.65,4.35,23.59,23.59,0,0,1-4.25,1,28.17,28.17,0,0,1-4.25.35,14.44,14.44,0,0,1-6.3-1.1,25,25,0,0,0-1.9,9,10,10,0,0,0,1.7,6q1.69,2.36,5.4,2.35a12.59,12.59,0,0,0,6.15-1.7,28.48,28.48,0,0,0,5.7-4.2,45.19,45.19,0,0,0,4.45-4.8c.93-1.13,1.73-2.2,2.4-3.2s1.36-2.15,2.1-3.45,1.6-2.92,2.6-4.85c.26-.47.5-.7.7-.7.4,0,.6.53.6,1.6a8.61,8.61,0,0,1-1.1,4.1c-.94,1.67-2,3.48-3.35,5.45s-2.62,3.85-3.95,5.65a28.41,28.41,0,0,1-4.1,4.4A25.64,25.64,0,0,1,192.2,84.9Zm-9.1-21.3a3.15,3.15,0,0,0,1.1.4,6.94,6.94,0,0,0,1.2.1,9.33,9.33,0,0,0,4-.95,22.35,22.35,0,0,0,3.4-1.95,16.38,16.38,0,0,0,3.9-3.8,9.59,9.59,0,0,0,1.8-5,2.92,2.92,0,0,0-.55-2,2.67,2.67,0,0,0-2.25-.85,8.5,8.5,0,0,0-2,.3,10,10,0,0,0-3.2,1.5,21.7,21.7,0,0,0-3.1,2.6c-.34.33-.92,1-1.75,2a25.41,25.41,0,0,0-2.35,3.2,5.92,5.92,0,0,0-1.1,3.05A1.5,1.5,0,0,0,183.1,63.6Z" transform="translate(-4.4 -15.5)"/><path d="M182.5,88.3a17,17,0,0,1-8.5-2.23,11.64,11.64,0,0,1-5.46-7.3,16.72,16.72,0,0,1-.64-4.67,25.89,25.89,0,0,1,1.4-8.17A33.48,33.48,0,0,1,173,58.26a31.15,31.15,0,0,1,8.88-9.09A21.26,21.26,0,0,1,193.9,45.5c3.38,0,6.06.9,8,2.67a8.42,8.42,0,0,1,2.92,6.33A10.68,10.68,0,0,1,202,61.82a17.22,17.22,0,0,1-7.05,4.62,25.07,25.07,0,0,1-4.44,1.1,28.64,28.64,0,0,1-4.4.36,17.6,17.6,0,0,1-5.73-.78,23.25,23.25,0,0,0-1.47,7.68,9.14,9.14,0,0,0,1.51,5.46c.94,1.31,2.44,1.94,4.59,1.94a11.62,11.62,0,0,0,5.66-1.57,28,28,0,0,0,5.5-4.06,42.19,42.19,0,0,0,4.35-4.69c.92-1.12,1.71-2.17,2.36-3.13s1.34-2.12,2.06-3.39,1.6-2.93,2.58-4.82c.21-.37.71-1.24,1.59-1.24s1.6.45,1.6,2.6a9.75,9.75,0,0,1-1.22,4.58c-1,1.7-2.1,3.55-3.4,5.52s-2.63,3.88-4,5.69a29.1,29.1,0,0,1-4.25,4.56,26.59,26.59,0,0,1-5.19,3.54A21.88,21.88,0,0,1,182.5,88.3Zm11.4-40.8A19.24,19.24,0,0,0,183,50.83a29.21,29.21,0,0,0-8.32,8.51,31.68,31.68,0,0,0-3.44,7.23,23.86,23.86,0,0,0-1.3,7.53,15.14,15.14,0,0,0,.56,4.13,9.59,9.59,0,0,0,4.53,6.1,15,15,0,0,0,7.51,2A19.78,19.78,0,0,0,191.74,84h0a24.76,24.76,0,0,0,4.8-3.26,27.39,27.39,0,0,0,4-4.25c1.32-1.78,2.64-3.67,3.91-5.6s2.39-3.74,3.32-5.39a7.9,7.9,0,0,0,.75-1.89c.07-.33.13-.63.17-.93-.73,1.39-1.4,2.61-2,3.65-.74,1.32-1.46,2.5-2.14,3.51a40.58,40.58,0,0,1-2.46,3.29A45.78,45.78,0,0,1,197.53,78a29.42,29.42,0,0,1-5.89,4.34A13.51,13.51,0,0,1,185,84.2c-2.8,0-4.89-.93-6.21-2.76a11.05,11.05,0,0,1-1.89-6.64,26.13,26.13,0,0,1,2-9.36l.39-1,1,.5a13.52,13.52,0,0,0,5.85,1,25.92,25.92,0,0,0,4.09-.34,23.63,23.63,0,0,0,4.08-1,15.29,15.29,0,0,0,6.23-4.08,8.58,8.58,0,0,0,2.3-6,6.42,6.42,0,0,0-2.28-4.87A9.49,9.49,0,0,0,193.9,47.5Zm-8.5,17.6A8.94,8.94,0,0,1,184,65a4.12,4.12,0,0,1-1.4-.5,2.49,2.49,0,0,1-1.43-2.39,6.87,6.87,0,0,1,1.25-3.58,26.86,26.86,0,0,1,2.44-3.32c.86-1,1.45-1.66,1.8-2a23.64,23.64,0,0,1,3.24-2.71,10.83,10.83,0,0,1,3.53-1.65,9.45,9.45,0,0,1,2.24-.33,3.62,3.62,0,0,1,3,1.24,3.82,3.82,0,0,1,.75,2.74,10.46,10.46,0,0,1-2,5.51,17.43,17.43,0,0,1-4.14,4,23.22,23.22,0,0,1-3.54,2A10.2,10.2,0,0,1,185.4,65.1Zm10.3-14.6a7.62,7.62,0,0,0-1.76.27,9.12,9.12,0,0,0-2.88,1.35,21.65,21.65,0,0,0-2.95,2.49c-.32.31-.89.94-1.7,1.89a25.56,25.56,0,0,0-2.27,3.08,5.16,5.16,0,0,0-.94,2.52c0,.45.17.52.3.59l.11.05a2,2,0,0,0,.75.27,7.67,7.67,0,0,0,4.61-.76,22.62,22.62,0,0,0,3.25-1.86,15.61,15.61,0,0,0,3.67-3.58,8.5,8.5,0,0,0,1.61-4.48,1.87,1.87,0,0,0-.35-1.37A1.75,1.75,0,0,0,195.7,50.5Z" transform="translate(-4.4 -15.5)"/><path d="M211,106.4a19.92,19.92,0,0,1-5.25-.75,10.32,10.32,0,0,1-4.6-2.55,6.37,6.37,0,0,1-1.85-4.8,6.5,6.5,0,0,1,1.3-3.9,4.18,4.18,0,0,1,3.6-1.8,4.82,4.82,0,0,1,2.6.75,3.71,3.71,0,0,1,1.6,1.85,2.31,2.31,0,0,0-.6.6,4.25,4.25,0,0,0-.5.7,6.36,6.36,0,0,0-.7,2.9,3.81,3.81,0,0,0,1.35,3,5.12,5.12,0,0,0,3.45,1.15,10,10,0,0,0,5.6-2,16.34,16.34,0,0,0,5.05-5.95A71,71,0,0,0,225,89.1l5.7-15.2q-1.8,2.2-3.75,4.45c-1.3,1.5-2.12,2.42-2.45,2.75-2.54,2.53-4.8,4.13-6.8,4.8a17,17,0,0,1-5.3,1,5,5,0,0,1-4.05-2.1,9.7,9.7,0,0,1-1.65-6.1,28,28,0,0,1,.6-5.1A61.5,61.5,0,0,1,209,67a74.21,74.21,0,0,1,2.55-7,41,41,0,0,1,3.15-6.15q2.6-4.09,5.8-5.3a23.3,23.3,0,0,1,8.1-1.2.35.35,0,0,1,.4.4,1.63,1.63,0,0,1-.6,1,21.05,21.05,0,0,0-3.4,4.2,65.62,65.62,0,0,0-3.85,6.6,59,59,0,0,0-3.05,6.9,55.91,55.91,0,0,0-1.55,5.4,23.45,23.45,0,0,0-.75,5.4,6,6,0,0,0,.45,2.55,1.51,1.51,0,0,0,1.45,1q1.59,0,4.4-2.4a39.88,39.88,0,0,0,7.6-8.6,68.81,68.81,0,0,0,5.8-10.6q1.4-3.19,2.3-5.45a14.54,14.54,0,0,1,2-3.65,6.24,6.24,0,0,1,3.1-2,18.12,18.12,0,0,1,5.4-.65h4.1a12.67,12.67,0,0,0-3.8,4.45A52.84,52.84,0,0,0,245,59.4c-.87,2.13-1.75,4.47-2.65,7l-2.75,7.7Q238.4,77.7,237,82c-.94,2.83-2,5.6-3.2,8.3a32.07,32.07,0,0,1-4.2,7,24.9,24.9,0,0,1-8.3,6.65A22.79,22.79,0,0,1,211,106.4Z" transform="translate(-4.4 -15.5)"/><path d="M211,107.4a21.13,21.13,0,0,1-5.52-.79,11.39,11.39,0,0,1-5-2.79,7.38,7.38,0,0,1-2.15-5.52,7.54,7.54,0,0,1,1.49-4.49,5.15,5.15,0,0,1,4.41-2.21,5.81,5.81,0,0,1,3.13.9,4.69,4.69,0,0,1,2,2.36l.3.84-.79.39h0s-.09.09-.28.33c-.31.39-.38.51-.39.52a5.56,5.56,0,0,0-.59,2.46,2.8,2.8,0,0,0,1,2.29,4.14,4.14,0,0,0,2.8.91,9,9,0,0,0,5-1.82,15.49,15.49,0,0,0,4.73-5.58,67.57,67.57,0,0,0,2.9-6.46L227.72,79l0,0c-1.35,1.56-2.14,2.45-2.5,2.81-2.67,2.67-5,4.32-7.19,5a18,18,0,0,1-5.61,1.05,6,6,0,0,1-4.84-2.48,10.7,10.7,0,0,1-1.86-6.72,29.83,29.83,0,0,1,.61-5.29A64.8,64.8,0,0,1,208,66.65c.74-2.38,1.61-4.76,2.58-7.09a43.38,43.38,0,0,1,3.23-6.29c1.85-2.91,4-4.83,6.3-5.71a24.36,24.36,0,0,1,8.45-1.26,1.36,1.36,0,0,1,1.4,1.4,2.56,2.56,0,0,1-.9,1.71,20.94,20.94,0,0,0-3.27,4.05A66.38,66.38,0,0,0,222,60a57.18,57.18,0,0,0-3,6.78,55.06,55.06,0,0,0-1.52,5.3,22.41,22.41,0,0,0-.72,5.16,5.18,5.18,0,0,0,.35,2.12c.15.32.3.38.55.38.46,0,1.55-.28,3.75-2.16a39.45,39.45,0,0,0,7.42-8.39,68.61,68.61,0,0,0,5.71-10.45c.95-2.17,1.7-3.94,2.29-5.42a15.91,15.91,0,0,1,2.14-3.9A7.29,7.29,0,0,1,242.59,47a19.22,19.22,0,0,1,5.71-.7h7.55l-2.92,1.85a12,12,0,0,0-3.47,4.1,52.48,52.48,0,0,0-3.53,7.51c-.86,2.11-1.75,4.45-2.64,7s-1.82,5.11-2.75,7.71c-.79,2.38-1.66,5-2.59,7.82s-2,5.69-3.24,8.4a33.37,33.37,0,0,1-4.33,7.26,25.79,25.79,0,0,1-8.64,6.92A23.75,23.75,0,0,1,211,107.4Zm-6.8-13.8A3.17,3.17,0,0,0,201.41,95a5.47,5.47,0,0,0-1.11,3.31,5.38,5.38,0,0,0,1.54,4.08,9.4,9.4,0,0,0,4.17,2.3,18.86,18.86,0,0,0,5,.72,21.92,21.92,0,0,0,9.85-2.34,24.12,24.12,0,0,0,8-6.39,31.46,31.46,0,0,0,4.06-6.83c1.18-2.64,2.24-5.41,3.17-8.2s1.8-5.46,2.6-7.86c.94-2.62,1.85-5.18,2.75-7.71s1.81-4.92,2.67-7a53.94,53.94,0,0,1,3.66-7.77,20.33,20.33,0,0,1,2.06-3H248.3a17.16,17.16,0,0,0-5.09.6,5.33,5.33,0,0,0-2.63,1.72,13.86,13.86,0,0,0-1.85,3.4c-.6,1.5-1.36,3.29-2.32,5.48a69.05,69.05,0,0,1-5.88,10.75,40.89,40.89,0,0,1-7.79,8.82c-2.07,1.77-3.72,2.63-5,2.63a2.51,2.51,0,0,1-2.36-1.52,7.06,7.06,0,0,1-.54-3,24.42,24.42,0,0,1,.78-5.64c.5-2.09,1-3.94,1.57-5.49a60.71,60.71,0,0,1,3.11-7,65.22,65.22,0,0,1,3.91-6.69,25.48,25.48,0,0,1,3.16-4,20.73,20.73,0,0,0-6.48,1.12c-1.92.71-3.7,2.36-5.31,4.89a41.55,41.55,0,0,0-3.07,6c-.95,2.26-1.8,4.58-2.52,6.91a63,63,0,0,0-1.67,6.54,26.61,26.61,0,0,0-.58,4.91,8.83,8.83,0,0,0,1.43,5.48,4,4,0,0,0,3.27,1.72,16.18,16.18,0,0,0,5-1c1.84-.61,4-2.14,6.41-4.56.31-.31,1.12-1.22,2.4-2.7s2.56-3,3.73-4.42l3.84-4.7-7.83,20.88a69.21,69.21,0,0,1-3,6.65,17.31,17.31,0,0,1-5.36,6.31,10.93,10.93,0,0,1-6.18,2.19,6.13,6.13,0,0,1-4.1-1.39,4.77,4.77,0,0,1-1.7-3.81,7.5,7.5,0,0,1,.8-3.35,5.3,5.3,0,0,1,.62-.88l.14-.17a3,3,0,0,0-.89-.8A3.75,3.75,0,0,0,204.2,93.6Z" transform="translate(-4.4 -15.5)"/><path d="M237.09,111.1a15.45,15.45,0,0,0,1.3-2.45c.54-1.17,1.11-2.42,1.7-3.75s1.11-2.47,1.5-3.4q1.71-4.2,3.91-10.25T250,78.6q2.3-6.6,4.39-12.6t3.7-9.9q1.5-3.6,2.61-5.75a6.6,6.6,0,0,1,3.14-3.1,15.68,15.68,0,0,1,6.25-1h3a17.61,17.61,0,0,0-3.64,4.55q-2.25,3.56-4.25,7.45c.46-.6.89-1.18,1.3-1.75A11.53,11.53,0,0,1,267.79,55a36.9,36.9,0,0,1,6.8-6.5,12.07,12.07,0,0,1,7-2.6,6.23,6.23,0,0,1,4.75,2.1q1.95,2.1,2,7.1a26,26,0,0,1-1.75,9.25,39.29,39.29,0,0,1-4.65,8.8,43.93,43.93,0,0,1-6.39,7.35A15.79,15.79,0,0,1,274,81.85c-.57.43-1.16.85-1.75,1.25a10.56,10.56,0,0,0,6.34-1.5,28.26,28.26,0,0,0,5.8-4.4,57.39,57.39,0,0,0,4.36-4.7,64.84,64.84,0,0,0,4.05-6c1.36-2.27,2.48-4.27,3.34-6,.27-.47.5-.7.7-.7.54,0,.8.6.8,1.8a6.45,6.45,0,0,1-1,3.3q-.79,1.5-2.2,3.8c-.93,1.53-1.76,2.87-2.5,4a43.13,43.13,0,0,1-10.69,11A24.85,24.85,0,0,1,266.5,88H265a11.7,11.7,0,0,1-1.54-.1,13.44,13.44,0,0,1-4.5-1.15,5,5,0,0,1-2.8-3.55l-5.61,17.5c-.73,2.33-1.41,4.27-2.05,5.8a8.34,8.34,0,0,1-2.4,3.45,6.69,6.69,0,0,1-4.25,1.15ZM261.2,83.7A6.57,6.57,0,0,0,265.09,82a28.84,28.84,0,0,0,4.36-4.4,45.17,45.17,0,0,0,3.64-5.15A57.38,57.38,0,0,0,277,64.2a20.49,20.49,0,0,0,1.59-6.9c0-2-.8-3-2.39-3a7.65,7.65,0,0,0-4.61,2,27.57,27.57,0,0,0-4,4.1,61.88,61.88,0,0,0-4.4,6.05,38.82,38.82,0,0,0-3.5,6.8,17.55,17.55,0,0,0-1.35,6.25c0,.33,0,.65,0,1s.09.62.16,1A2.56,2.56,0,0,0,261.2,83.7Z" transform="translate(-4.4 -15.5)"/><path d="M241.89,112.1h-6.74l1.13-1.58a14.26,14.26,0,0,0,1.2-2.29c.54-1.16,1.1-2.41,1.7-3.74s1.1-2.46,1.5-3.38c1.11-2.74,2.41-6.18,3.88-10.2s3-8.29,4.49-12.64,3-8.6,4.4-12.6,2.66-7.36,3.72-10c1-2.42,1.89-4.38,2.63-5.83a7.69,7.69,0,0,1,3.62-3.55,16.42,16.42,0,0,1,6.67-1h6.13l-2.54,1.81a11.81,11.81,0,0,0-2.41,2.79A34.43,34.43,0,0,1,274,47.69a13,13,0,0,1,7.58-2.79,7.22,7.22,0,0,1,5.49,2.42c1.49,1.61,2.21,4.15,2.21,7.78a27.31,27.31,0,0,1-1.81,9.6,40.42,40.42,0,0,1-4.77,9,45.11,45.11,0,0,1-6.54,7.52c-.18.18-.37.36-.58.54a10.84,10.84,0,0,0,2.46-1,27.2,27.2,0,0,0,5.59-4.24,57,57,0,0,0,4.28-4.62,64.48,64.48,0,0,0,4-5.89c1.35-2.23,2.46-4.23,3.31-5.93.21-.38.71-1.25,1.59-1.25.68,0,1.8.36,1.8,2.8a7.58,7.58,0,0,1-1.13,3.81c-.53,1-1.28,2.29-2.21,3.81s-1.78,2.88-2.52,4a44.32,44.32,0,0,1-11,11.28A26,26,0,0,1,266.5,89H265a14,14,0,0,1-1.67-.11,14.53,14.53,0,0,1-4.79-1.23,5.64,5.64,0,0,1-2.2-1.75L251.55,101c-.76,2.41-1.44,4.33-2.08,5.88a9.43,9.43,0,0,1-2.7,3.85A7.72,7.72,0,0,1,241.89,112.1Zm-3.08-2h3.08a5.82,5.82,0,0,0,3.63-.93,7.44,7.44,0,0,0,2.1-3c.62-1.5,1.28-3.37,2-5.72l6.64-20.75.88,3.29a4.09,4.09,0,0,0,2.25,2.9,12.62,12.62,0,0,0,4.17,1.06A11.08,11.08,0,0,0,265,87h1.46a24,24,0,0,0,14.12-4.12,42.17,42.17,0,0,0,10.45-10.75c.71-1.1,1.54-2.42,2.47-3.95s1.64-2.75,2.17-3.75a5.6,5.6,0,0,0,.88-2.71c-.8,1.54-1.8,3.33-3,5.3a67.55,67.55,0,0,1-4.11,6.09,56.7,56.7,0,0,1-4.45,4.8,29,29,0,0,1-6,4.56,11.69,11.69,0,0,1-6.94,1.63l-2.81-.27,2.35-1.56c.58-.39,1.15-.8,1.7-1.21a16.46,16.46,0,0,0,1.45-1.27,43.92,43.92,0,0,0,6.29-7.21A39.19,39.19,0,0,0,285.61,64a25.25,25.25,0,0,0,1.68-8.9c0-3.06-.56-5.22-1.68-6.42a5.22,5.22,0,0,0-4-1.78,11.1,11.1,0,0,0-6.41,2.41,35.87,35.87,0,0,0-6.61,6.32,12.22,12.22,0,0,0-1.26,1.5c-.41.58-.85,1.17-1.32,1.78l-1.68-1.07c1.33-2.6,2.77-5.13,4.29-7.53a36.06,36.06,0,0,1,2.11-3h-.62a14.81,14.81,0,0,0-5.83.86,5.6,5.6,0,0,0-2.67,2.64c-.72,1.41-1.59,3.32-2.57,5.68-1,2.56-2.29,5.87-3.68,9.85s-2.87,8.2-4.4,12.6-3,8.62-4.51,12.66-2.78,7.51-3.91,10.29c-.41,1-.91,2.09-1.51,3.43s-1.17,2.59-1.71,3.76C239.13,109.45,239,109.79,238.81,110.1ZM261.2,84.7a3.55,3.55,0,0,1-3.68-3.09c-.08-.37-.13-.72-.17-1a8.91,8.91,0,0,1-.06-1.06,18.41,18.41,0,0,1,1.42-6.61,40.18,40.18,0,0,1,3.59-7,61.14,61.14,0,0,1,4.48-6.15,29.13,29.13,0,0,1,4.2-4.25,8.62,8.62,0,0,1,5.22-2.21c1,0,3.39.39,3.39,4a21.17,21.17,0,0,1-1.66,7.26,58.78,58.78,0,0,1-4,8.34,46.68,46.68,0,0,1-3.74,5.28,29.41,29.41,0,0,1-4.5,4.55A7.47,7.47,0,0,1,261.2,84.7Zm15-29.4a6.73,6.73,0,0,0-4,1.78,27.67,27.67,0,0,0-3.91,4A59.83,59.83,0,0,0,264,67a38.17,38.17,0,0,0-3.41,6.62,16.55,16.55,0,0,0-1.29,5.89,7.58,7.58,0,0,0,0,.84,7.3,7.3,0,0,0,.14.86c.23,1.06.73,1.5,1.72,1.5a5.79,5.79,0,0,0,3.27-1.53,27.75,27.75,0,0,0,4.2-4.25,43.37,43.37,0,0,0,3.57-5,56.24,56.24,0,0,0,3.82-8,19.44,19.44,0,0,0,1.53-6.54C277.59,55.3,276.72,55.3,276.2,55.3Z" transform="translate(-4.4 -15.5)"/><path d="M306.49,87.1a11.79,11.79,0,0,1-7.95-2.9q-3.35-2.9-3.35-9.3a31.06,31.06,0,0,1,1.7-9.8,35.69,35.69,0,0,1,4.85-9.5,26.75,26.75,0,0,1,7.65-7.2,18.71,18.71,0,0,1,10.1-2.8,12.49,12.49,0,0,1,7.15,1.75A9.68,9.68,0,0,1,330.29,52a17.18,17.18,0,0,1,1.1,6.2,23.66,23.66,0,0,1-.55,5,30.54,30.54,0,0,1-1.55,5,5.43,5.43,0,0,0,4.3,2,7.75,7.75,0,0,0,5.2-2.1,12.79,12.79,0,0,0,2.55-3c.77-1.23,1.45-2.38,2.05-3.45.2-.4.44-.6.7-.6s.5.47.5,1.4a10.24,10.24,0,0,1-.25,2.1,6.62,6.62,0,0,1-1,2.4,14.79,14.79,0,0,1-3.1,4,12.79,12.79,0,0,1-3.6,2.15,8.51,8.51,0,0,1-3.2.6,9,9,0,0,1-5.6-1.9,27.13,27.13,0,0,1-2,3.5,28.34,28.34,0,0,1-7.5,8.35Q313.7,87.1,306.49,87.1Zm3.8-3.8a7.52,7.52,0,0,0,4.45-1.55,19.38,19.38,0,0,0,3.95-3.85,33.6,33.6,0,0,0,3.15-4.8c.9-1.67,1.65-3.13,2.25-4.4a9.21,9.21,0,0,1-3.4-7.3,6.12,6.12,0,0,1,1.6-4.5,5.38,5.38,0,0,1,4.4-1.4,6.68,6.68,0,0,0-1.2-3.8,4.16,4.16,0,0,0-3.6-1.5,7.62,7.62,0,0,0-4.35,1.4,18.29,18.29,0,0,0-3.8,3.55,38.23,38.23,0,0,0-3.1,4.4q-1.35,2.25-2.25,4.05a40.2,40.2,0,0,0-2.4,6.3,24.45,24.45,0,0,0-1.1,6.9A8.71,8.71,0,0,0,306,81.45Q307.2,83.3,310.29,83.3Z" transform="translate(-4.4 -15.5)"/><path d="M306.49,88.1a12.79,12.79,0,0,1-8.6-3.14c-2.45-2.13-3.7-5.51-3.7-10.06A31.91,31.91,0,0,1,296,64.78a36.44,36.44,0,0,1,5-9.76,27.81,27.81,0,0,1,7.94-7.47,19.75,19.75,0,0,1,10.62-2.95,13.6,13.6,0,0,1,7.72,1.92,10.8,10.8,0,0,1,4,5.12,18.56,18.56,0,0,1,1.16,6.56,25.12,25.12,0,0,1-.57,5.26,32,32,0,0,1-1.37,4.62,4.38,4.38,0,0,0,3.14,1.22,6.77,6.77,0,0,0,4.55-1.85,12.23,12.23,0,0,0,2.36-2.83c.75-1.21,1.43-2.36,2-3.41a1.74,1.74,0,0,1,1.57-1.11c.69,0,1.5.42,1.5,2.4a10.86,10.86,0,0,1-.27,2.3,7.77,7.77,0,0,1-1.19,2.75,15.69,15.69,0,0,1-3.29,4.16A14.17,14.17,0,0,1,337,74a9.73,9.73,0,0,1-3.58.67,10,10,0,0,1-5.21-1.43,29.86,29.86,0,0,1-1.55,2.58,29.64,29.64,0,0,1-7.74,8.6C315.67,86.87,311.49,88.1,306.49,88.1Zm13-41.5a17.83,17.83,0,0,0-9.57,2.65,25.82,25.82,0,0,0-7.36,6.93,34.64,34.64,0,0,0-4.72,9.24,30.1,30.1,0,0,0-1.65,9.48c0,3.94,1,6.82,3,8.54a10.66,10.66,0,0,0,7.29,2.66c4.56,0,8.33-1.09,11.2-3.25a27.45,27.45,0,0,0,7.24-8.06,25.64,25.64,0,0,0,2-3.42l.53-1.11,1,.74a7.92,7.92,0,0,0,5,1.7,7.58,7.58,0,0,0,2.83-.53,12.24,12.24,0,0,0,3.33-2,14.29,14.29,0,0,0,2.88-3.69,6.24,6.24,0,0,0,.94-2.11c.06-.32.12-.63.15-.91-.41.71-.86,1.44-1.33,2.2A14.08,14.08,0,0,1,339.45,69a8.78,8.78,0,0,1-5.86,2.34A6.39,6.39,0,0,1,328.53,69l-.39-.46.23-.56a31.93,31.93,0,0,0,1.5-4.89,23.11,23.11,0,0,0,.52-4.84,16.4,16.4,0,0,0-1-5.85,8.68,8.68,0,0,0-3.28-4.18A11.71,11.71,0,0,0,319.49,46.6Zm-9.2,37.7c-2.42,0-4.14-.78-5.1-2.32a9.71,9.71,0,0,1-1.3-5.18A25.38,25.38,0,0,1,305,69.61a39.71,39.71,0,0,1,2.46-6.46c.61-1.21,1.38-2.6,2.29-4.11A38.2,38.2,0,0,1,313,54.52a19.31,19.31,0,0,1,4-3.75,8.62,8.62,0,0,1,4.91-1.57,5.11,5.11,0,0,1,4.41,1.91,7.74,7.74,0,0,1,1.39,4.35l.05,1.12-1.12-.08A4.4,4.4,0,0,0,323,57.61a5.09,5.09,0,0,0-1.31,3.79,8.17,8.17,0,0,0,3.05,6.54l.59.5-.33.69c-.61,1.29-1.38,2.78-2.28,4.45a34.69,34.69,0,0,1-3.24,4.94,21.08,21.08,0,0,1-4.15,4A8.57,8.57,0,0,1,310.29,84.3Zm11.6-33.1a6.5,6.5,0,0,0-3.78,1.23,17,17,0,0,0-3.59,3.35,37.06,37.06,0,0,0-3,4.28c-.88,1.48-1.63,2.82-2.21,4A38.4,38.4,0,0,0,307,70.18a23.51,23.51,0,0,0-1.06,6.62,7.73,7.73,0,0,0,1,4.12c.58.93,1.69,1.38,3.4,1.38a6.54,6.54,0,0,0,3.87-1.36,19,19,0,0,0,3.75-3.66,33.31,33.31,0,0,0,3-4.66c.74-1.35,1.37-2.58,1.91-3.68a10.11,10.11,0,0,1-3.18-7.54,7.07,7.07,0,0,1,1.9-5.21,6,6,0,0,1,4-1.7,5.18,5.18,0,0,0-.89-2.2A3.24,3.24,0,0,0,321.89,51.2Z" transform="translate(-4.4 -15.5)"/><path d="M351.09,86.9a4.93,4.93,0,0,1-4.4-2.3,7.67,7.67,0,0,1-1-2.6,15.75,15.75,0,0,1-.3-3.1,27.65,27.65,0,0,1,.2-3.25c.14-1.1.3-2.18.5-3.25.34-1.73.72-3.32,1.15-4.75s.89-2.82,1.35-4.15v-.1a34.38,34.38,0,0,1-2,3.25c-.8,1.17-1.36,2-1.7,2.55-.46.73-.83,1.1-1.1,1.1s-.4-.3-.4-.9a10,10,0,0,1,1.2-4.4q.81-1.61,2.2-4.15c.94-1.7,1.9-3.55,2.9-5.55s1.87-3.93,2.6-5.8h-6.7c-.33,0-.4-.27-.2-.8a5.73,5.73,0,0,1,.9-1.55q.6-.75.9-.75h7.6q1.11-2.59,2.55-5.6a42,42,0,0,1,3.3-5.65,19.8,19.8,0,0,1,4.05-4.35,7.59,7.59,0,0,1,4.7-1.7h2.75a11.51,11.51,0,0,0,2.05-.1,20.66,20.66,0,0,0-4.9,5.55,75,75,0,0,0-6.1,11.85h10.1c.2,0,.14.25-.2.75a11.64,11.64,0,0,1-1.25,1.55,2.09,2.09,0,0,1-1.45.8h-8.6q-1.29,3.3-2.85,7.2t-2.8,7.65a55.27,55.27,0,0,0-1.85,6.85,17.56,17.56,0,0,0-.4,3.5q0,3.8,2.4,3.8a6.82,6.82,0,0,0,3.8-1.6,22.54,22.54,0,0,0,4.4-4.4,63.22,63.22,0,0,0,3.85-5.6q1.86-3,3.15-5.5c.27-.47.5-.7.7-.7.4,0,.6.53.6,1.6a8,8,0,0,1-.25,1.85,7.08,7.08,0,0,1-.85,2q-1.4,2.4-3.3,5.25t-3.9,5.65a48.37,48.37,0,0,1-3.65,4.1,30,30,0,0,1-4.8,4A9,9,0,0,1,351.09,86.9Z" transform="translate(-4.4 -15.5)"/><path d="M351.09,87.9a5.89,5.89,0,0,1-5.23-2.75,8.7,8.7,0,0,1-1.15-3,17.17,17.17,0,0,1-.32-3.3,27.35,27.35,0,0,1,.21-3.37c.14-1.11.31-2.23.51-3.32.15-.77.31-1.53.48-2.25-.47.7-1,1.34-1.8,1.34-.32,0-1.4-.14-1.4-1.9a11,11,0,0,1,1.31-4.85c.55-1.1,1.3-2.51,2.22-4.18s1.89-3.54,2.88-5.52q1.11-2.22,2-4.35h-5.22a1.3,1.3,0,0,1-1.08-.54,1.75,1.75,0,0,1-.05-1.61,6.46,6.46,0,0,1,1.05-1.82,2.39,2.39,0,0,1,1.68-1.13h6.94c.68-1.57,1.45-3.26,2.31-5a43.94,43.94,0,0,1,3.38-5.78A20.87,20.87,0,0,1,364.08,30a8.55,8.55,0,0,1,5.31-1.91h2.75A11.52,11.52,0,0,0,374,28l5.33-1.23-4.53,3a20.11,20.11,0,0,0-4.63,5.28,69,69,0,0,0-5.4,10.29h8.57a1.12,1.12,0,0,1,1,.57,1.76,1.76,0,0,1-.35,1.74,13,13,0,0,1-1.36,1.67,3,3,0,0,1-2.18,1.12h-7.92c-.8,2-1.66,4.21-2.6,6.57-1,2.56-1.95,5.12-2.78,7.6a54.37,54.37,0,0,0-1.81,6.72,15.92,15.92,0,0,0-.39,3.31c0,2.8,1,2.8,1.4,2.8a6.06,6.06,0,0,0,3.21-1.41,22,22,0,0,0,4.21-4.21,66.35,66.35,0,0,0,3.78-5.51c1.22-2,2.27-3.81,3.12-5.43.2-.37.7-1.24,1.58-1.24s1.6.45,1.6,2.6a9.42,9.42,0,0,1-.27,2.08,8.29,8.29,0,0,1-1,2.34c-.93,1.59-2.05,3.37-3.32,5.28s-2.59,3.82-3.92,5.68a51.93,51.93,0,0,1-3.75,4.22,30.46,30.46,0,0,1-5,4.13A10,10,0,0,1,351.09,87.9Zm-1.5-28.49v4.26l0,.16c-.47,1.32-.92,2.71-1.34,4.11a44.85,44.85,0,0,0-1.12,4.65c-.2,1-.36,2.11-.49,3.18a25.55,25.55,0,0,0-.2,3.13,15.33,15.33,0,0,0,.28,2.9,6.58,6.58,0,0,0,.87,2.26,3.92,3.92,0,0,0,3.55,1.84,8.07,8.07,0,0,0,4.4-1.53,29.41,29.41,0,0,0,4.64-3.87,50.46,50.46,0,0,0,3.58-4c1.29-1.82,2.59-3.71,3.85-5.59s2.36-3.64,3.27-5.2a6.3,6.3,0,0,0,.74-1.78,7.66,7.66,0,0,0,.16-.84c-.73,1.33-1.58,2.79-2.53,4.34a68.28,68.28,0,0,1-3.91,5.69,24.36,24.36,0,0,1-4.61,4.6,7.73,7.73,0,0,1-4.39,1.79c-1.27,0-3.4-.62-3.4-4.8a18.23,18.23,0,0,1,.43-3.71,54.52,54.52,0,0,1,1.88-7c.83-2.51,1.78-5.1,2.81-7.7s2-5,2.85-7.2l.25-.63h9.28c.07,0,.3,0,.72-.48.2-.21.38-.42.55-.62h-10l.59-1.39a76.36,76.36,0,0,1,6.19-12,34,34,0,0,1,3-3.89h-2.07a6.55,6.55,0,0,0-4.09,1.49,19.17,19.17,0,0,0-3.84,4.13,41.6,41.6,0,0,0-3.22,5.51c-.95,2-1.81,3.86-2.53,5.56l-.25.61h-8a2.9,2.9,0,0,0-.33.37,4.05,4.05,0,0,0-.49.73h7.17l-.54,1.37c-.74,1.88-1.63,3.86-2.63,5.88s-2,3.88-2.92,5.58-1.64,3-2.18,4.12a11,11,0,0,0-.9,2.38c.31-.47.71-1,1.18-1.75a33.92,33.92,0,0,0,1.94-3.15Z" transform="translate(-4.4 -15.5)"/></svg>